# xmcd
#
# Track frame offsets: 
#        150
#        14234
#        27090
#        41487
#        53095
#        67902
#        79378
#        93448
#        105558
#        118598
#        132137
#        146352
#        158823
#        172294
#        184881
#        195621
#        208545
#        222465
#        235341
#        249219
#        261354
#        272379
#        284514
#        296611
#        308817
#        322017
#        334713
#        345554
#
# Disc length: 4790 seconds
#
# Revision: 0
# Processed by: cddbd v1.5.2PL0 Copyright (c) Steve Scherf et al.
# Submitted via: ExactAudioCopy v0.99pb5
#
DISCID=a712b41c
DTITLE=Various Artist - Please Mr Disc Jockey - CD1
DYEAR=2015
DGENRE=R&B
TTITLE0=The Clovers - Don't You Know I Love You (1951)
TTITLE1=The Clovers - Skylark (1951)
TTITLE2=The Cardinals - Shouldn't I Know (1951)
TTITLE3=The Clovers - Fool Fool Fool (1951)
TTITLE4=The Clovers - Needless (1951)
TTITLE5=The Clovers - All Night Boogie (1951)
TTITLE6=The Cardinals - I'll Always Love You (1951)
TTITLE7=The Cardinals - Pretty Baby Blues (1951)
TTITLE8=The Cardinals - The Wheel Of Fortune (1952)
TTITLE9=The Diamonds - A Beggar For Your Kisses (1952)
TTITLE10=The Cardinals - You Are My Only Love (1953)
TTITLE11=The Cardinals - Lovie Darling (1953)
TTITLE12=Clyde McPhatter and The Drifters - Money Honey (1953)
TTITLE13=Clyde McPhatter and The Drifters - The Way I Feel (1953)
TTITLE14=The Diamonds - Cherry (1953)
TTITLE15=Clyde McPhatter and The Drifters - Let The Boogie Woogie Roll (
TTITLE15=1956)
TTITLE16=Clyde McPhatter and The Drifters - Lucille (1954)
TTITLE17=The Cardinals - Please Baby (1954)
TTITLE18=The Cardinals - Under A Blanket Of Blue (1954)
TTITLE19=The Chords - Cross Over The Bridge (1954)
TTITLE20=The Chords - Sh-Boom (1954)
TTITLE21=The Chords - Little Maiden (1954)
TTITLE22=Clyde McPhatter, Bill Pinkney and The Drifters - White Christma
TTITLE22=s (1954)
TTITLE23=Clyde McPhatter and The Drifters - The Bells Of St Mary's (1954
TTITLE23=)
TTITLE24=The Chords - Bless You (For Being An Angel) (1954)
TTITLE25=The Sensations - Yes Sir, That's My Baby (1955)
TTITLE26=The Sensations, feat. Yvonne Mills - Please Mr Disc Jockey (1
TTITLE26=956)
TTITLE27=The Chordcats - A Girl To Love (1954)
EXTD=
EXTT0=
EXTT1=
EXTT2=
EXTT3=
EXTT4=
EXTT5=
EXTT6=
EXTT7=
EXTT8=
EXTT9=
EXTT10=
EXTT11=
EXTT12=
EXTT13=
EXTT14=
EXTT15=
EXTT16=
EXTT17=
EXTT18=
EXTT19=
EXTT20=
EXTT21=
EXTT22=
EXTT23=
EXTT24=
EXTT25=
EXTT26=
EXTT27=
PLAYORDER=
